<svg xmlns="http://www.w3.org/2000/svg" viewBox="0 0 415 155" fill="#FFF"><path fill="#3A3A3A" d="M0 0h415v155H0z"/><path d="M104.98 71.94h26.32c2.24 0 3.32-1.01 3.32-2.67 0-1.59-1.08-2.6-3.39-2.6h-11.97c-8.44 0-15.29-5.77-15.29-15.94 0-11.68 8.01-15.94 16.08-15.94h29.86v13.34h-25.75c-1.95 0-3.32.72-3.32 2.52 0 1.88 1.37 2.67 3.32 2.67h11.25c9.66 0 16.08 5.7 16.08 15.87 0 9.59-7.21 16.08-16.59 16.08h-30.15l.23-13.33zm80.34-23.88v5.26h-27.69v13.34h27.69V72h-27.69v13.27h44.57V34.79h-44.57v13.27h27.69zm78.24 11.62c0 16.59-14.21 25.6-24.81 25.6h-30.08V34.79h30.65c12.42 0 24.24 9.45 24.24 24.89zm-17.02-.08c0-8.15-5.12-11.47-12.91-11.47h-8.08v23.8h8.65c7.08.01 12.34-4.75 12.34-12.33zm21.71.36c0-14.35 11.68-25.96 26.04-25.96 14.35 0 26.04 11.61 26.04 25.96 0 14.42-11.68 26.04-26.04 26.04s-26.04-11.61-26.04-26.04zm35.34 0c0-5.12-4.18-9.3-9.3-9.3-5.12 0-9.3 4.18-9.3 9.3 0 5.19 4.18 9.38 9.3 9.38 5.11 0 9.3-4.18 9.3-9.38zm76.44-25.17h-16.88L343.1 61.05h-.5V34.79h-16.88v50.49h16.88l19.98-25.39h.58v25.39h16.88V34.79z"/><circle fill="#6A8759" cx="294.25" r="26"/></svg>
