<svg width="24" height="24" viewBox="0 0 24 24" fill="none" xmlns="http://www.w3.org/2000/svg">
    <path d="M5 7C5 4.23858 7.23858 2 10 2V2C11.1046 2 12 2.89543 12 4V9C12 10.1046 11.1046 11 10 11H7C5.89543 11 5 10.1046 5 9V7Z"
          fill="currentColor" />
    <path d="M14 3C15.0609 3 16.0783 3.42143 16.8284 4.17157C17.5786 4.92172 18 5.93913 18 7V11V17C18 18.0609 17.5786 19.0783 16.8284 19.8284C16.0783 20.5786 15.0609 21 14 21H10C8.93913 21 7.92172 20.5786 7.17157 19.8284C6.42143 19.0783 6 18.0609 6 17V13"
          stroke="currentColor" stroke-width="2" stroke-linecap="round" stroke-linejoin="round" />
    <path d="M14 10L18 10" stroke="currentColor" stroke-width="2" stroke-linecap="round" stroke-linejoin="round" />
</svg>
